<svg xmlns="http://www.w3.org/2000/svg" width="40" height="40" viewBox="0 0 40 40"><defs><style>.a{fill:none;}.b{fill:#27c6df;}.c{fill:#d60644;}.d{fill:#707070;}</style></defs><g transform="translate(-275.344 -1218.344)"><rect class="a" width="40" height="40" transform="translate(275.344 1218.344)"/><rect class="b" width="4" height="11" transform="translate(284.344 1236.344)"/><path class="b" d="M-.506-.117,3.716.022V10.7H-.836Z" transform="translate(302.136 1236.964)"/><rect class="c" width="4" height="9" transform="translate(280.344 1237.344)"/><rect class="c" width="4" height="9" transform="translate(305.344 1237.344)"/><g transform="translate(279.395 1219.437)"><g transform="translate(13.276 5.698)"><g transform="translate(0)"><path class="d" d="M240.993,79.114a.726.726,0,0,0-1.148.888,13.809,13.809,0,0,1,2.91,8.527v2.128a2.138,2.138,0,0,0-.7-.116h-2a1.777,1.777,0,0,0-1.711-1.3h-1.989a1.775,1.775,0,0,0-1.773,1.773v9.516a1.776,1.776,0,0,0,1.773,1.774h1.989a1.782,1.782,0,0,0,.277-.022,5.544,5.544,0,0,1-5.491,4.832h-.384a1.962,1.962,0,0,0-1.922-1.578h-2.175a1.961,1.961,0,0,0-1.959,1.959v.689a1.961,1.961,0,0,0,1.959,1.959h2.175a1.962,1.962,0,0,0,1.922-1.578h.384a7,7,0,0,0,6.988-6.988.721.721,0,0,0-.122-.4,1.758,1.758,0,0,0,.059-.176h2a2.149,2.149,0,0,0,2.147-2.146V88.529A15.247,15.247,0,0,0,240.993,79.114Zm-9.657,29.068h0a.509.509,0,0,1-.508.508h-2.175a.509.509,0,0,1-.508-.508v-.689a.509.509,0,0,1,.508-.508h2.175a.509.509,0,0,1,.508.508Zm7.334-16.916v9.26a.323.323,0,0,1-.323.323h-1.989a.323.323,0,0,1-.322-.323V91.01a.322.322,0,0,1,.322-.322h1.989a.323.323,0,0,1,.323.322Zm4.085,1.818v5.765a.7.7,0,0,1-.7.7h-1.938V91.992h1.938a.7.7,0,0,1,.7.7Z" transform="translate(-226.694 -78.832)"/></g></g><g transform="translate(0)"><g transform="translate(0)"><path class="d" d="M67.367,2.878A15.4,15.4,0,0,0,43.008,15.395v10.32a2.149,2.149,0,0,0,2.147,2.146h2a1.777,1.777,0,0,0,1.711,1.3h1.989a1.776,1.776,0,0,0,1.773-1.774V17.876A1.775,1.775,0,0,0,50.856,16.1H48.867a1.777,1.777,0,0,0-1.711,1.3h-2a2.138,2.138,0,0,0-.7.116V15.395A13.945,13.945,0,0,1,66.521,4.057a.726.726,0,1,0,.846-1.179ZM48.544,27.136v-9.26a.323.323,0,0,1,.323-.322h1.989a.322.322,0,0,1,.322.322v9.516a.323.323,0,0,1-.322.323H48.867a.323.323,0,0,1-.323-.323Zm-3.389-8.279h1.938V26.41H45.155a.7.7,0,0,1-.7-.7V19.553A.7.7,0,0,1,45.155,18.857Z" transform="translate(-43.008 0)"/></g></g><g transform="translate(24.828 4.063)"><g transform="translate(0)"><path class="d" d="M387.218,56.22a.726.726,0,0,0,0,1.451A.726.726,0,0,0,387.218,56.22Z" transform="translate(-386.517 -56.22)"/></g></g></g></g></svg>