<svg xmlns="http://www.w3.org/2000/svg" width="40" height="40" viewBox="0 0 40 40"><defs><style>.a{fill:none;}.b{fill:#d60644;}.c{fill:#fff;}.d{fill:#707070;}.e{fill:#27c6df;}</style></defs><g transform="translate(-1144 -1618)"><rect class="a" width="40" height="40" transform="translate(1144 1618)"/><g transform="translate(-46 36)"><g transform="translate(-4272.459 -2204.863)"><path class="b" d="M5487.187,3798.765l5.307.442h1.032l5.232,7.664v8.032l-.737,1.547-1.1.3h-2.948l-1.475-2.137-1.694-.884h-1.327l-1.769.884-1.1.958-.441,1.179h-4.791l-1.1-1.842-1.99-1.179h-1.916l-1.769.884-1.032,2.137h-2.653l-1.253-1.179-.589-1.842v-3.171h16.581l.958-1.253.589-1.99Z"/><path class="c" d="M5489.423,3802.153h1.757l3.515,5.2v1.927l-4.932.283-.624-.964Z"/></g><g transform="translate(-4272.459 -2204.863)"><path class="a" d="M5494.165,3807.42l-3.178-4.765h-.968v6.28h4.146Z"/><path class="a" d="M5469.963,3811.111v3.087a1.765,1.765,0,0,0,1.167,1.948h2.085a4.316,4.316,0,0,1,8.291,0h4.319a4.314,4.314,0,0,1,8.292.013H5497c.559,0,1.328-1.043,1.328-1.626l.012-6.591a3.217,3.217,0,0,0-.235-1.018l-4.319-6.367c-.211-.323-.6-.906-1.229-.906h-.037l-4.664-.025v11.485Zm18.84-8.552a1.151,1.151,0,0,1,1.13-1.142h1.08a1.16,1.16,0,0,1,.956.533l3.214,4.8a1.181,1.181,0,0,1,.186.638V3809a1.137,1.137,0,0,1-1.129,1.142h-4.307a1.137,1.137,0,0,1-1.13-1.142Z"/><path class="a" d="M5489.958,3814.235a3.153,3.153,0,1,0,2.222.918A3.155,3.155,0,0,0,5489.958,3814.235Z"/><path class="a" d="M5477.346,3814.235c-.038,0-.077,0-.116,0a3.153,3.153,0,1,0,2.338,5.387h0l.018-.017a3.152,3.152,0,0,0-2.24-5.369Z"/><path class="d" d="M5499.129,3806.18l-.025-.024-4.27-6.417a3.223,3.223,0,0,0-2.719-1.465h-4.265l0,1.352,4.664.025h.037c.633,0,1.018.583,1.229.906l4.319,6.367a3.217,3.217,0,0,1,.235,1.018l-.012,6.591c0,.583-.769,1.626-1.328,1.626h-2.879a4.314,4.314,0,0,0-8.292-.013h-4.319a4.316,4.316,0,0,0-8.291,0h-2.085a1.765,1.765,0,0,1-1.167-1.948v-3.087s-.894.012-1.455.029v3.31a2.885,2.885,0,0,0,2.6,3.141h.006a3.159,3.159,0,0,0,.6,0h1.3a4.339,4.339,0,0,0,4.332,4.145h.137a4.348,4.348,0,0,0,4.184-4.083l3.972.025a4.333,4.333,0,0,0,4.319,4.071,1.049,1.049,0,0,0,.2-.013,4.315,4.315,0,0,0,4.12-4.009l2.123.025a3.293,3.293,0,0,0,3.277-3.289v-6.442A3.227,3.227,0,0,0,5499.129,3806.18Zm-19.543,13.424-.018.017h0a3.169,3.169,0,1,1-2.338-5.387c.039,0,.078,0,.116,0a3.152,3.152,0,0,1,2.24,5.369Zm12.609,0a3.153,3.153,0,1,1-.015-4.456A3.142,3.142,0,0,1,5492.195,3819.609Z"/><path class="d" d="M5489.933,3810.143h4.307a1.137,1.137,0,0,0,1.129-1.142v-1.613a1.181,1.181,0,0,0-.186-.638l-3.214-4.8a1.16,1.16,0,0,0-.956-.533h-1.08a1.151,1.151,0,0,0-1.13,1.142V3809A1.137,1.137,0,0,0,5489.933,3810.143Zm.086-7.488h.967l3.179,4.765v1.515h-4.146Z"/></g><path class="e" d="M5468.062,3811.3l16.972-.067a2.748,2.748,0,0,0,2.011-.741,3.348,3.348,0,0,0,.807-2.463l.1-9.685v-2.117a3.259,3.259,0,0,0-3.15-3.36h-16.068a3.336,3.336,0,0,0-3.275,3.329v11.964a3.158,3.158,0,0,0,2.32,3.076ZM5466.9,3796.2a1.934,1.934,0,0,1,1.688-1.872l16.234-.165h.014a1.736,1.736,0,0,1,1.736,1.671v12.651a1.808,1.808,0,0,1-2.024,1.408h-16.036a1.87,1.87,0,0,1-1.612-1.759Z" transform="translate(-4272.459 -2204.863)"/></g></g></svg>