<svg xmlns="http://www.w3.org/2000/svg" width="40" height="40" viewBox="0 0 40 40"><defs><style>.a{fill:#27c6df;}.b{fill:#d60644;}.c{fill:#707070;}.d{fill:none;}</style></defs><g transform="translate(-52 -1525)"><path class="a" d="M8.15,15.095v0L6.869,8.223,0,9.5,6,.748A.336.336,0,0,1,5.94.534a15.231,15.231,0,0,0,1.5,2.085L4.918,6.3l3.746-.7.7,3.747,2.281-3.327a14.812,14.812,0,0,0,2.081.936L8.151,15.093Zm21.474-.485,0,0L24.246,6.765a14.853,14.853,0,0,0,2.033-1.006L28.41,8.867l.7-3.748,3.747.7L30.369,2.191A15.226,15.226,0,0,0,31.823,0a.31.31,0,0,1-.052.264l6,8.756L30.9,7.739l-1.281,6.868Z" transform="translate(53.023 1548.744)"/><path class="b" d="M151.209,138.265l-3.745-3.744-1.628,1.628,5.373,5.373,10.984-10.984-1.628-1.628Zm0,0" transform="translate(-81.497 1405.912)"/><path class="c" d="M16,32A16,16,0,0,1,4.686,4.686,16,16,0,0,1,27.315,27.313,15.9,15.9,0,0,1,16,32ZM16,2.558A13.441,13.441,0,1,0,29.439,16,13.456,13.456,0,0,0,16,2.558Z" transform="translate(56 1525)"/><rect class="d" width="40" height="40" transform="translate(52 1525)"/></g></svg>