<svg xmlns="http://www.w3.org/2000/svg" width="40" height="40" viewBox="0 0 40 40"><defs><style>.a{fill:#27c6df;}.b{fill:none;}.c{fill:#d60644;}.d{fill:#707070;}</style></defs><g transform="translate(-6460.09 -3880.273)"><circle class="a" cx="1.079" cy="1.079" r="1.079" transform="translate(6485.359 3908.928)"/><circle class="a" cx="1.079" cy="1.079" r="1.079" transform="translate(6488.026 3908.928)"/><circle class="a" cx="1.079" cy="1.079" r="1.079" transform="translate(6485.359 3911.529)"/><circle class="a" cx="1.079" cy="1.079" r="1.079" transform="translate(6488.026 3911.529)"/><circle class="a" cx="1.079" cy="1.079" r="1.079" transform="translate(6490.866 3908.939)"/><circle class="a" cx="1.079" cy="1.079" r="1.079" transform="translate(6493.633 3908.939)"/><circle class="a" cx="1.079" cy="1.079" r="1.079" transform="translate(6490.866 3911.529)"/><g transform="translate(6460.091 3880.273)"><rect class="b" width="40" height="40" transform="translate(-0.001)"/><path class="a" d="M6484.777,3901.093v-1.824a.811.811,0,0,0-.81-.807h-.2a.811.811,0,0,0-.807.807v1.794a1.2,1.2,0,1,0,1.815.034Z" transform="translate(-6456.111 -3877.063)"/><path class="a" d="M6487.23,3899.269a.812.812,0,0,0-.808-.807h-.2a.811.811,0,0,0-.811.807v1.807a1.2,1.2,0,1,0,1.815,0h0Z" transform="translate(-6455.675 -3877.063)"/><path class="a" d="M6489.638,3901.07v-1.8a.81.81,0,0,0-.807-.807h-.2a.812.812,0,0,0-.811.807v1.807a1.2,1.2,0,1,0,1.815,0Z" transform="translate(-6455.25 -3877.063)"/><path class="a" d="M6492.171,3899.354h-.294v1.815h.384a1.262,1.262,0,0,1,1.263,1.262v9.324a1.263,1.263,0,0,1-1.263,1.262H6482.24a1.262,1.262,0,0,1-1.262-1.262v-9.326a1.262,1.262,0,0,1,1.262-1.263h.4v-1.814h-.315a3.156,3.156,0,0,0-3.157,3.156h0v9.147a3.156,3.156,0,0,0,3.157,3.156h9.843a3.156,3.156,0,0,0,3.156-3.156h0V3902.5A3.156,3.156,0,0,0,6492.171,3899.354Z" transform="translate(-6456.724 -3876.906)"/><path class="c" d="M6473.458,3910a.473.473,0,0,0,.353.144h1.876a.775.775,0,0,0,.446-.224.912.912,0,0,0,.206-.295c.026-.056.063-.159.118-.281.788-1.82,7.142-16.415,7.258-16.681a9.42,9.42,0,0,0,0-1.618c0-.588-.47-.588-.47-.588h-11.9c-.29,0-.46.411-.46.607v1.1c0,.255.227.657.573.657.374-.006,4.34-.04,4.34-.04l5.049.04s-7.482,16.744-7.5,16.823A.385.385,0,0,0,6473.458,3910Z" transform="translate(-6458.187 -3878.476)"/><path class="d" d="M6480.68,3915.277l-.061-.256a15.455,15.455,0,1,1,13.5-15.328q0,.588-.043,1.164l.3-.118a1.451,1.451,0,0,1,1.7.138c.026-.392.041-.787.041-1.185a17.435,17.435,0,1,0-14.976,17.266A2.731,2.731,0,0,1,6480.68,3915.277Z" transform="translate(-6459.888 -3879.921)"/></g></g></svg>