<svg xmlns="http://www.w3.org/2000/svg" width="70.723" height="27.509" viewBox="0 0 70.723 27.509">
  <path id="Path_2404" data-name="Path 2404" d="M-62.1.691h-.03V-7.847a.571.571,0,0,1,.166-.422.578.578,0,0,1,.422-.181h1.566a.549.549,0,0,1,.467.256.613.613,0,0,1,.105.331V.811h-.015a6.578,6.578,0,0,1-1.837,3.825,6.8,6.8,0,0,1-4.773,1.9h-.5a.586.586,0,0,1-.6-.422.715.715,0,0,1-.03-.2V4.455A.571.571,0,0,1-67,4.033a.747.747,0,0,1,.376-.211h.151a4.652,4.652,0,0,0,3.192-1.114A3.469,3.469,0,0,0-62.1.691Zm-.075-12.8v-1.536A.564.564,0,0,1-62-14.08a.573.573,0,0,1,.437-.2h1.6a.591.591,0,0,1,.5.271.636.636,0,0,1,.105.346v1.6a.621.621,0,0,1-.286.512.706.706,0,0,1-.391.09h-1.476a.623.623,0,0,1-.632-.437A.885.885,0,0,1-62.179-12.108ZM-47.755.028a6.059,6.059,0,0,1-2.04,4.607,6.777,6.777,0,0,1-4.766,1.9h-2a.586.586,0,0,1-.6-.422.716.716,0,0,1-.03-.2V4.455a.571.571,0,0,1,.166-.422.58.58,0,0,1,.376-.181v-.03H-55A4.652,4.652,0,0,0-51.8,2.708,3.373,3.373,0,0,0-50.465.585h-3.614a3.465,3.465,0,0,1-2.063-.708q-.2-.166-.437-.407a3.458,3.458,0,0,1-.934-2.379v-2.8A3.436,3.436,0,0,1-56.653-8a4.075,4.075,0,0,1,.557-.512A3.383,3.383,0,0,1-54.063-9.2H-51.2a3.414,3.414,0,0,1,2.093.738,4.651,4.651,0,0,1,.482.437,3.677,3.677,0,0,1,.482.723,3.466,3.466,0,0,1,.391,1.7Zm-5.737-6.806a3.106,3.106,0,0,0-2.281.941,3.106,3.106,0,0,0-.941,2.281,3.106,3.106,0,0,0,.941,2.281,3.106,3.106,0,0,0,2.281.941,3.106,3.106,0,0,0,2.281-.941,3.106,3.106,0,0,0,.941-2.281,3.106,3.106,0,0,0-.941-2.281A3.106,3.106,0,0,0-53.491-6.778Zm15.554,4.291a5.117,5.117,0,0,0,1.972.361V.585a3.11,3.11,0,0,1-1.972-.723V.811h-.015a6.578,6.578,0,0,1-1.837,3.825,6.8,6.8,0,0,1-4.773,1.9h-.5a.586.586,0,0,1-.6-.422.716.716,0,0,1-.03-.2V4.455a.571.571,0,0,1,.166-.422.747.747,0,0,1,.376-.211H-45a4.652,4.652,0,0,0,3.192-1.114A3.469,3.469,0,0,0-40.633.691h-.03V-7.847a.571.571,0,0,1,.166-.422.578.578,0,0,1,.422-.181h1.566a.549.549,0,0,1,.467.256.613.613,0,0,1,.105.331ZM-32.743.585h-4.894v-2.71h4.894Zm4.1,0h-4.894v-2.71h4.894Zm4.1,0h-4.894v-2.71h4.894Zm4.1,0H-25.35v-2.71h4.894Zm4.1,0h-4.894v-2.71h4.894Zm.678-5.511a3.455,3.455,0,0,1-.542-1.882V-9.578a3.436,3.436,0,0,1,.858-2.289,4.074,4.074,0,0,1,.557-.512,3.383,3.383,0,0,1,2.033-.693h2.861a3.414,3.414,0,0,1,2.093.738,4.651,4.651,0,0,1,.482.437,3.677,3.677,0,0,1,.482.723,3.466,3.466,0,0,1,.391,1.7L-6.3-2.938A3.094,3.094,0,0,1-7.582-.649a4.439,4.439,0,0,1-3.1,1.235h-6.625v-2.71h6.655q1.491,0,1.491-1.114-1.084-.015-2.319-.075h-1.31a3.356,3.356,0,0,1-1.039-.166.442.442,0,0,0-.105-.015A3.236,3.236,0,0,1-15.683-4.926Zm2.846-4.412a2.614,2.614,0,0,0-1.92.79,2.6,2.6,0,0,0-.79,1.9,2.614,2.614,0,0,0,.79,1.92,2.614,2.614,0,0,0,1.92.79,2.6,2.6,0,0,0,1.9-.79,2.614,2.614,0,0,0,.79-1.92,2.6,2.6,0,0,0-.79-1.9A2.6,2.6,0,0,0-12.837-9.337Zm-.06-5.782v-1.536a.564.564,0,0,1,.181-.437.573.573,0,0,1,.437-.2h1.6a.591.591,0,0,1,.5.271.636.636,0,0,1,.105.346v1.6a.621.621,0,0,1-.286.512.706.706,0,0,1-.391.09h-1.476a.623.623,0,0,1-.632-.437A.885.885,0,0,1-12.9-15.119ZM.022.028A.579.579,0,0,1-.249.51.673.673,0,0,1-.626.6h-1.4a.586.586,0,0,1-.6-.422.716.716,0,0,1-.03-.2V-16.143a.571.571,0,0,1,.166-.422.578.578,0,0,1,.422-.181H-.551a.549.549,0,0,1,.467.256.613.613,0,0,1,.105.331Zm-2.725-21H3.545a.013.013,0,0,1,.015.015v2.2q0,.03-.015.03H-1.349a6.841,6.841,0,0,0-2.183.226,2.794,2.794,0,0,0-.693.316,1.883,1.883,0,0,0-.6.723q-.136.271-.256.572l-.03.015-2.274-.828-.015-.015a9.209,9.209,0,0,1,1.039-1.717,4.435,4.435,0,0,1,.768-.738A4.727,4.727,0,0,1-2.7-20.977Z" transform="translate(67.163 20.977)" fill="#d60644"/>
</svg>
